<svg width="174" height="93" viewBox="0 0 174 93" fill="none" xmlns="http://www.w3.org/2000/svg">
<g id="Group">
<g id="Group_2">
<g id="Group_3">
<path id="Vector" d="M103.135 76.4624H105.198L109.983 89.2062H108.056L107.058 86.4575H101.23L100.255 89.2062H98.4406L103.135 76.4624ZM101.751 84.9128H106.491L104.11 78.2797L101.751 84.9128Z" fill="black"/>
<path id="Vector_2" d="M115.176 79.5972C115.766 79.5972 116.287 79.688 116.741 79.8925C117.194 80.0969 117.58 80.3468 117.92 80.6648C118.237 80.9829 118.51 81.3463 118.691 81.7325C118.895 82.1414 119.008 82.5276 119.077 82.9364H117.466C117.353 82.3685 117.081 81.9142 116.673 81.5508C116.265 81.1873 115.72 81.0056 115.085 81.0056C114.723 81.0056 114.36 81.0737 114.042 81.21C113.725 81.3463 113.43 81.5735 113.203 81.8461C112.954 82.1414 112.772 82.4821 112.636 82.9364C112.5 83.3681 112.432 83.8905 112.432 84.4811C112.432 85.0718 112.5 85.5942 112.636 86.0486C112.772 86.5029 112.976 86.8663 113.226 87.1617C113.475 87.457 113.747 87.6841 114.065 87.8204C114.382 87.9567 114.723 88.0476 115.085 88.0476C115.426 88.0476 115.743 88.0022 116.015 87.8886C116.287 87.775 116.537 87.6387 116.741 87.457C116.945 87.2752 117.104 87.0708 117.24 86.8436C117.376 86.6165 117.466 86.3893 117.534 86.1394H119.19C119.099 86.5938 118.94 87.0026 118.714 87.4115C118.487 87.7977 118.192 88.1612 117.829 88.4565C117.466 88.7518 117.058 89.0017 116.582 89.1834C116.106 89.3651 115.584 89.456 115.04 89.456C114.36 89.456 113.747 89.3424 113.203 89.0925C112.659 88.8427 112.205 88.5019 111.843 88.0703C111.48 87.6387 111.185 87.1162 111.004 86.5256C110.822 85.9123 110.709 85.2535 110.709 84.5266C110.709 83.8224 110.822 83.1636 111.026 82.573C111.23 81.9824 111.525 81.4599 111.911 81.0283C112.296 80.5967 112.772 80.2559 113.317 80.0061C113.838 79.7108 114.473 79.5972 115.176 79.5972Z" fill="black"/>
<path id="Vector_3" d="M123.68 89.4335C123.226 89.4335 122.818 89.3654 122.433 89.2518C122.047 89.1382 121.707 88.9565 121.39 88.7293C121.095 88.5022 120.868 88.2296 120.687 87.8888C120.528 87.5481 120.437 87.1846 120.437 86.753C120.437 86.1851 120.596 85.7308 120.891 85.3446C121.185 84.9585 121.616 84.6404 122.183 84.3906C122.728 84.1407 123.408 83.9362 124.202 83.7772C124.995 83.6182 125.857 83.5046 126.832 83.391V83.1184C126.832 82.6641 126.787 82.3007 126.673 82.0054C126.56 81.71 126.401 81.4829 126.22 81.3012C126.016 81.1421 125.789 81.0058 125.517 80.9377C125.245 80.8695 124.973 80.8241 124.655 80.8241C123.929 80.8241 123.362 80.9831 123 81.3239C122.637 81.6646 122.41 82.1189 122.387 82.7096H120.732C120.777 82.2098 120.891 81.7555 121.14 81.3466C121.367 80.9377 121.662 80.6197 122.025 80.3471C122.387 80.0745 122.796 79.87 123.249 79.7337C123.703 79.5974 124.179 79.5293 124.678 79.5293C125.993 79.5293 126.945 79.8246 127.558 80.4379C128.17 81.0513 128.465 82.0281 128.442 83.391L128.419 85.5945C128.397 86.3896 128.419 87.0711 128.465 87.639C128.51 88.2069 128.578 88.7066 128.669 89.161H127.059C127.036 88.9792 127.013 88.7748 126.991 88.5476C126.968 88.3205 126.945 88.0479 126.945 87.7753C126.651 88.275 126.242 88.6612 125.744 88.9565C125.199 89.2745 124.542 89.4335 123.68 89.4335ZM126.945 84.6404C126.22 84.7086 125.562 84.7994 124.973 84.8903C124.383 84.9812 123.884 85.1175 123.476 85.2538C123.068 85.3901 122.75 85.5945 122.523 85.8217C122.297 86.0488 122.183 86.3214 122.183 86.6622C122.183 87.1165 122.342 87.4572 122.659 87.7525C122.977 88.0479 123.43 88.1614 123.997 88.1614C124.36 88.1614 124.723 88.116 125.086 88.0024C125.426 87.9116 125.744 87.7298 126.016 87.5027C126.288 87.2528 126.492 86.9348 126.673 86.5259C126.832 86.117 126.923 85.5945 126.923 84.9585V84.6404H126.945Z" fill="black"/>
<path id="Vector_4" d="M137.195 76.4624H138.783V89.2062H137.195V87.7751C136.901 88.2748 136.515 88.6837 135.994 88.979C135.495 89.2743 134.86 89.4333 134.089 89.4333C133.522 89.4333 133 89.3198 132.524 89.1153C132.048 88.8881 131.617 88.5701 131.254 88.1612C130.891 87.7296 130.619 87.2299 130.415 86.6165C130.211 86.0032 130.098 85.3217 130.098 84.5266C130.098 83.7543 130.211 83.0728 130.415 82.4595C130.619 81.8461 130.914 81.3464 131.254 80.9148C131.617 80.4832 132.048 80.1651 132.524 79.938C133 79.7108 133.522 79.5972 134.089 79.5972C134.837 79.5972 135.472 79.7562 135.994 80.0516C136.492 80.3469 136.901 80.7558 137.195 81.2555V76.4624ZM137.286 84.5039C137.286 83.8906 137.218 83.3454 137.059 82.8911C136.901 82.4368 136.697 82.0733 136.447 81.778C136.198 81.4827 135.903 81.2782 135.563 81.1419C135.223 81.0056 134.882 80.9375 134.542 80.9375C133.68 80.9375 133.046 81.2555 132.569 81.8688C132.116 82.4822 131.889 83.3681 131.889 84.5039C131.889 85.6397 132.116 86.5257 132.569 87.139C133.023 87.7523 133.68 88.0704 134.542 88.0704C134.882 88.0704 135.245 88.0022 135.563 87.8659C135.903 87.7296 136.198 87.5252 136.447 87.2299C136.697 86.9346 136.901 86.5711 137.059 86.1168C137.195 85.6625 137.286 85.14 137.286 84.5039Z" fill="black"/>
<path id="Vector_5" d="M145.246 89.4333C144.475 89.4333 143.817 89.297 143.25 89.0471C142.683 88.7972 142.207 88.4565 141.822 88.0022C141.436 87.5478 141.141 87.0254 140.96 86.4347C140.778 85.8441 140.665 85.1853 140.665 84.4811C140.665 83.7315 140.778 83.05 141.005 82.4594C141.232 81.8461 141.549 81.3463 141.958 80.9147C142.366 80.4831 142.842 80.1651 143.386 79.9379C143.931 79.7107 144.543 79.5972 145.2 79.5972C145.926 79.5972 146.561 79.7335 147.128 80.0288C147.695 80.3014 148.171 80.6875 148.534 81.1873C148.897 81.6871 149.169 82.255 149.35 82.9137C149.509 83.5725 149.577 84.2767 149.532 85.0263H142.411C142.411 85.5034 142.479 85.9123 142.638 86.2984C142.774 86.6619 142.978 86.9799 143.25 87.2525C143.5 87.5024 143.794 87.7068 144.135 87.8431C144.475 87.9794 144.838 88.0476 145.223 88.0476C145.949 88.0476 146.516 87.9113 146.901 87.616C147.287 87.3207 147.582 86.9572 147.786 86.4802H149.441C149.328 86.8891 149.169 87.2752 148.942 87.6387C148.715 88.0021 148.421 88.3202 148.08 88.5701C147.74 88.8426 147.332 89.0471 146.856 89.2061C146.357 89.3424 145.835 89.4333 145.246 89.4333ZM145.2 80.9601C144.384 80.9601 143.749 81.1873 143.228 81.6643C142.729 82.1187 142.457 82.7774 142.411 83.6407H147.854C147.831 83.3226 147.786 82.9819 147.65 82.6639C147.536 82.3458 147.355 82.0505 147.151 81.8006C146.924 81.5508 146.652 81.3463 146.334 81.1873C146.017 81.0283 145.631 80.9601 145.2 80.9601Z" fill="black"/>
<path id="Vector_6" d="M153.024 89.2063H151.437V79.7564H153.024V81.1875C153.296 80.7332 153.659 80.3698 154.112 80.0744C154.566 79.7791 155.156 79.6201 155.859 79.6201C156.584 79.6201 157.174 79.7564 157.605 80.0517C158.036 80.347 158.376 80.7559 158.58 81.2784C158.943 80.6878 159.419 80.2789 159.94 80.0063C160.485 79.7337 161.074 79.6201 161.755 79.6201C162.299 79.6201 162.775 79.711 163.16 79.8927C163.546 80.0744 163.863 80.3243 164.113 80.6423C164.362 80.9604 164.544 81.3465 164.657 81.8009C164.771 82.2552 164.816 82.7322 164.816 83.2774V89.2518H163.229V83.7545C163.229 83.391 163.206 83.0503 163.16 82.7095C163.115 82.3915 163.024 82.0962 162.866 81.8463C162.73 81.5964 162.526 81.392 162.253 81.2557C161.981 81.1194 161.641 81.0285 161.21 81.0285C160.53 81.0285 159.963 81.2784 159.555 81.8009C159.147 82.3233 158.943 83.0957 158.943 84.1179V89.2518H157.355V83.7545C157.355 83.391 157.333 83.0503 157.287 82.7095C157.242 82.3915 157.151 82.0962 156.992 81.8463C156.856 81.5964 156.652 81.392 156.38 81.2557C156.108 81.1194 155.768 81.0285 155.337 81.0285C154.657 81.0285 154.09 81.2784 153.682 81.8009C153.273 82.3233 153.069 83.0957 153.069 84.1179V89.2063H153.024Z" fill="black"/>
<path id="Vector_7" d="M174 79.7561L170.644 89.6149C170.462 90.1374 170.304 90.5463 170.145 90.887C169.986 91.2278 169.782 91.5004 169.555 91.7048C169.329 91.9093 169.034 92.0456 168.694 92.1364C168.354 92.2273 167.923 92.2727 167.378 92.2727H166.562V90.9325H167.22C167.469 90.9325 167.719 90.9098 167.923 90.887C168.127 90.8643 168.308 90.7962 168.467 90.7053C168.626 90.6144 168.762 90.4554 168.875 90.251C168.988 90.0465 169.102 89.7512 169.215 89.3878L169.283 89.1833L165.882 79.7334H167.651L170.054 87.0253L172.39 79.7334H174V79.7561Z" fill="black"/>
</g>
<g id="Group_4">
<path id="Vector_8" d="M154.384 54.6777L151.074 61.4244L147.014 54.6777H143.636L149.554 64.5138L149.418 64.7864C148.897 65.8314 147.581 66.581 146.289 66.581H145.382V69.4887H146.289C148.693 69.4887 150.983 68.1257 152.026 66.104L157.627 54.6777H154.384Z" fill="black"/>
</g>
<g id="Group_5">
<path id="Vector_9" d="M137.49 54.6777H130.869V69.4887H137.49C140.892 69.4887 143.658 66.7173 143.658 63.3099V60.8565C143.658 57.4491 140.892 54.6777 137.49 54.6777ZM140.756 63.3099C140.756 65.1045 139.304 66.581 137.49 66.581H133.771V57.5854H137.49C139.282 57.5854 140.756 59.062 140.756 60.8565V63.3099Z" fill="black"/>
</g>
<g id="Group_6">
<path id="Vector_10" d="M126.288 63.6054C127.694 62.7649 128.623 61.2429 128.623 59.4938C128.623 56.836 126.469 54.7007 123.839 54.7007H115.992V69.5116H118.895V64.2869H121.185C122.727 64.2869 124.179 65.1956 124.836 66.5812L126.242 69.4889H129.463L127.444 65.3091C127.149 64.6731 126.741 64.1052 126.288 63.6054ZM118.895 61.3792V57.5856H123.839C124.882 57.5856 125.721 58.4261 125.721 59.4711C125.721 60.516 124.882 61.3565 123.839 61.3565H118.895V61.3792Z" fill="black"/>
</g>
<g id="Group_7">
<path id="Vector_11" d="M108.804 54.6777H104.699C103.883 54.6777 103.157 55.2002 102.931 55.9953L98.826 69.4887H101.865L102.795 66.422H108.849V63.5143H103.656L105.448 57.5854H107.988L111.616 69.4887H114.632L110.527 55.9953C110.323 55.2002 109.62 54.6777 108.804 54.6777Z" fill="black"/>
</g>
</g>
<g id="Group_8">
<g id="Group_9">
<path id="Vector_12" d="M33.4031 93C14.9894 93 0 77.9846 0 59.5164C0 41.0481 14.9894 26.0554 33.4031 26.0554H86.1723V6.65584H66.8062V20.967H60.1619V6.06522C60.1619 2.72594 62.8831 0 66.2166 0H86.7619C90.0954 0 92.8166 2.72594 92.8166 6.06522V26.6461C92.8166 29.9853 90.0954 32.7113 86.7619 32.7113H33.4031C18.6404 32.7113 6.64434 44.7509 6.64434 59.5164C6.64434 74.2819 18.6631 86.3214 33.4031 86.3214C48.1431 86.3214 60.1619 74.2819 60.1619 59.5164V37.777H66.8062V59.5164C66.8289 77.9846 51.8394 93 33.4031 93Z" fill="black"/>
</g>
</g>
</g>
</svg>
