<svg width="139" height="27" viewBox="0 0 139 27" fill="none" xmlns="http://www.w3.org/2000/svg">
<path d="M6.13964 26.1301L0 0.65625H7.97307L10.7407 15.8886L13.958 0.65625H20.737L23.8156 15.8886L26.4956 0.65625H34.2599L28.2064 26.1301H20.0962L17.1913 15.2857L14.3901 26.1301H6.13964Z" fill="#0D07FB"/>
<path d="M116.242 18.1927H124.198C124.417 19.1152 124.814 19.7779 125.392 20.1808C125.968 20.5852 126.827 20.7866 127.968 20.7866C128.924 20.7866 129.678 20.6217 130.225 20.2932C130.772 19.9648 131.047 19.5123 131.047 18.9357C131.047 18.0131 129.899 17.2643 127.605 16.6877C127.143 16.5724 126.792 16.4862 126.549 16.4278C124.671 15.9432 123.174 15.5024 122.062 15.1053C120.95 14.7083 120.14 14.336 119.632 13.9901C118.652 13.2865 117.916 12.4457 117.426 11.4647C116.936 10.4853 116.692 9.36711 116.692 8.11028C116.692 5.58494 117.644 3.60262 119.546 2.16187C121.448 0.721109 124.065 0 127.397 0C130.672 0 133.248 0.688995 135.128 2.06698C137.007 3.44497 138.068 5.41999 138.31 7.99058H130.546C130.419 7.24174 130.088 6.68266 129.552 6.31335C129.016 5.94404 128.251 5.76011 127.26 5.76011C126.384 5.76011 125.732 5.90462 125.306 6.19219C124.879 6.48122 124.666 6.91914 124.666 7.50595C124.666 8.34822 125.784 9.05035 128.021 9.61527C128.216 9.67366 128.367 9.71307 128.47 9.73642C128.793 9.81671 129.283 9.93787 129.94 10.0999C132.904 10.8502 134.841 11.529 135.752 12.1406C136.881 12.8909 137.706 13.7434 138.224 14.6995C138.743 15.6571 139.002 16.7869 139.002 18.089C139.002 20.9019 138.02 23.0638 136.054 24.5746C134.087 26.0854 131.272 26.8401 127.606 26.8401C124.228 26.8401 121.55 26.0854 119.573 24.5746C117.594 23.0638 116.485 20.937 116.242 18.1927Z" fill="#0D07FB"/>
<path d="M82.5843 3.59678C79.8517 1.19844 76.1264 0 71.4086 0H50.422C45.691 0 41.9555 1.1999 39.2171 3.59678C36.4786 5.99513 35.1094 9.26931 35.1094 13.4193C35.1094 17.5591 36.4786 20.8304 39.2171 23.2331C41.9555 25.6373 45.691 26.8387 50.422 26.8387H71.4086C76.1264 26.8387 79.8517 25.6373 82.5843 23.2331C85.3169 20.8289 86.6832 17.5577 86.6832 13.4193C86.6832 9.26931 85.3169 5.99513 82.5843 3.59678ZM73.6901 20.1049H47.9696C45.002 20.1049 42.1453 17.8598 42.1453 13.6835C42.1453 9.50725 45.0005 7.26217 47.9696 7.26217H73.6901C76.6505 7.26217 79.6604 9.09268 79.6604 13.6835C79.6604 18.2744 76.6505 20.1049 73.6901 20.1049Z" fill="#0D07FB"/>
<path d="M89.7891 26.1301V0.65625H99.6817C102.195 0.65625 104.065 0.76865 105.293 0.993449C106.521 1.21825 107.591 1.59048 108.501 2.10869C110.265 3.14656 111.592 4.60483 112.479 6.48351C113.367 8.36218 113.81 10.6744 113.81 13.4187C113.81 16.3017 113.26 18.7248 112.159 20.6911C111.059 22.6574 109.436 24.1185 107.291 25.0747C106.461 25.4557 105.42 25.7257 104.17 25.8877C102.919 26.0498 100.917 26.1301 98.1606 26.1301H89.7891ZM97.9694 19.6795H100.166C102.207 19.6795 103.622 19.2241 104.411 18.3132C105.201 17.4023 105.597 15.7703 105.597 13.4187C105.597 11.124 105.192 9.49932 104.386 8.54173C103.579 7.58415 102.207 7.10681 100.27 7.10681H97.9694V19.6795Z" fill="#0D07FB"/>
</svg>
